<?xml version="1.0" encoding="utf-8"?>
<!DOCTYPE svg PUBLIC "-//W3C//DTD SVG 1.0//EN" "http://www.w3.org/TR/2001/REC-SVG-20010904/DTD/svg10.dtd">
<svg version="1.0" xmlns="http://www.w3.org/2000/svg" width="483px" height="254px" viewBox="0 0 X Y" preserveAspectRatio="xMidYMid meet">
 <g fill="#ffffff">
  <path d="M0 127 l0 -127 241.50 0 241.50 0 0 127 0 127 -241.50 0 -241.50 0 0 -127z m33 118 l-7.25 -0.25 -0.15 -22.10 -0.10 -22.15 8.60 -0.15 8.65 -0.15 -8.85 -0.10 -8.90 -0.10 0 22.40 c0 12.35 0.15 22.60 0.35 22.75 0.15 0.20 3.60 0.30 7.60 0.25 l7.30 -0.10 -7.25 -0.30z m45.15 0.15 c-0.65 -0.10 -1.75 -0.10 -2.50 0 -0.80 0.10 -0.25 0.20 1.10 0.20 1.40 0 2 -0.10 1.40 -0.20z m83.05 0.05 c0.70 -0.25 0.80 -2.25 0.80 -17.25 l0 -16.95 -4.50 0 -4.50 0 0 16.95 c0 13.10 0.15 17 0.65 17.20 0.90 0.40 6.65 0.40 7.55 0.05z m32.20 -0.05 c-3.55 -0.10 -9.25 -0.10 -12.75 0 -3.55 0.05 -0.65 0.15 6.35 0.15 7 0 9.90 -0.10 6.40 -0.15z m214.35 -0.15 l-13.50 -0.25 -0.30 -2 -0.30 -2 -0.10 2.05 c0 1.10 0.10 2.20 0.30 2.35 0.15 0.20 6.40 0.30 13.85 0.25 l13.55 -0.15 -13.50 -0.25z m-335.15 -16.75 l-0.15 -16.75 4.05 0 4 0 0.15 16.90 0.10 16.85 0.15 -17.10 0.10 -17.15 -4.50 0 -4.50 0 0 17 c0 9.35 0.15 17 0.40 17 0.20 0 0.30 -7.55 0.20 -16.75z m100 -5.50 l-0.10 -22.25 14.60 0.10 14.60 0.15 0.35 1.25 c0.30 1.15 0.35 1.10 0.40 -0.35 l0.05 -1.65 -15.25 0 -15.25 0 0 22.50 c0 12.40 0.15 22.50 0.40 22.50 0.20 0 0.30 -10 0.20 -22.25z m29.90 18.25 l0 -4 -10.50 0 -10.50 0 0 -5.50 0 -5.50 8.20 0 c4.50 0 8.55 -0.15 9 -0.30 0.65 -0.25 0.80 -1.10 0.80 -4 l0 -3.70 -9 0 -9 0 0 -5 0 -5 10.25 0 c5.65 0 10.25 -0.15 10.25 -0.35 0 -0.25 -4.70 -0.35 -10.50 -0.25 l-10.50 0.15 0 5.45 0 5.50 9 0 9 0 0 3.25 0 3.25 -9 0 -9 0 0 6.55 0 6.55 10.50 -0.20 10.50 -0.20 0 3.65 c0 2 0.10 3.65 0.25 3.65 0.15 0 0.25 -1.80 0.25 -4z m220.75 -3.40 c-0.25 -0.60 -1.65 -0.70 -9.50 -0.50 l-9.20 0.25 -0.15 -1.30 c-0.15 -1.25 -0.20 -1.25 -0.75 0.40 l-0.65 1.65 9.90 -0.15 9.85 -0.20 0.25 3.75 0.20 3.75 0.20 -3.45 c0.10 -1.90 0 -3.80 -0.15 -4.20z m-126.80 1.10 c-0.30 -0.40 -1.05 -0.70 -1.65 -0.65 -0.90 0.05 -0.90 0.10 0.20 0.40 1.10 0.30 1.30 0.65 1.50 3.05 l0.20 2.75 0.20 -2.40 c0.10 -1.40 -0.10 -2.75 -0.45 -3.15z m-10.95 2.75 c-0.35 -0.55 -0.65 -0.95 -0.70 -0.85 -0.05 0.05 -0.40 0.55 -0.75 1.05 -0.60 0.75 -0.55 0.85 0.65 0.85 1.20 0 1.30 -0.10 0.80 -1.05z m-178.10 -3.30 c-0.50 -0.10 -1.40 -0.10 -2 0 -0.65 0.10 -0.25 0.20 0.85 0.20 1.10 0.05 1.60 -0.05 1.15 -0.20z m238.50 0 c-0.50 -0.10 -1.40 -0.10 -2 0 -0.65 0.10 -0.25 0.20 0.85 0.20 1.10 0.05 1.60 -0.05 1.15 -0.20z m-306.90 -0.65 c-0.40 -0.25 -1.60 -0.50 -2.60 -0.50 l-1.90 0 0 -14.50 0 -14.45 4.40 -0.20 4.35 -0.15 -4.60 -0.10 -4.65 -0.10 0 15.25 0 15.25 2.90 0 c2 0 2.65 -0.15 2.10 -0.50z m220.50 0 c0 -0.65 -0.55 -0.65 -1.50 0 -0.60 0.40 -0.55 0.50 0.40 0.50 0.60 0 1.10 -0.20 1.10 -0.50z m62 0 c0 -0.65 -0.55 -0.65 -1.50 0 -0.60 0.40 -0.55 0.50 0.40 0.50 0.60 0 1.10 -0.20 1.10 -0.50z m124.90 0.15 c-0.80 -0.10 -2 -0.10 -2.75 0 -0.80 0.10 -0.15 0.20 1.35 0.20 1.50 0 2.15 -0.10 1.40 -0.20z m-153.55 -12.75 c-0.05 -2.30 -0.15 -0.45 -0.15 4.10 0 4.55 0.10 6.40 0.15 4.15 0.10 -2.30 0.10 -6 0 -8.25z m-50.35 2.35 c0 -8.50 -0.05 -9.25 -0.85 -9.20 -0.55 0 -0.65 0.15 -0.25 0.30 0.45 0.15 0.60 2.50 0.60 9.20 0 4.90 0.10 8.95 0.25 8.95 0.15 0 0.25 -4.15 0.25 -9.25z m62 0 c0 -5.10 -0.15 -9.25 -0.35 -9.25 -0.25 0 -0.35 4.15 -0.25 9.25 0.10 5.10 0.25 9.25 0.35 9.25 0.15 0 0.25 -4.15 0.25 -9.25z m-53.65 -5.40 c-0.05 -2.25 -0.15 -0.25 -0.15 4.40 0 4.70 0.10 6.50 0.15 4.10 0.10 -2.40 0.10 -6.25 0 -8.50z m62 0 c-0.05 -2.25 -0.15 -0.25 -0.15 4.40 0 4.70 0.10 6.50 0.15 4.10 0.10 -2.40 0.10 -6.25 0 -8.50z m-184.35 4.15 c0 -4.40 -0.15 -8 -0.35 -8 -0.25 0 -0.35 3.60 -0.25 8 0.10 4.40 0.25 8 0.35 8 0.15 0 0.25 -3.60 0.25 -8z m8.60 -2.90 c0.10 -2.80 0 -5.10 -0.20 -5.10 -0.25 0 -0.35 3.45 -0.30 7.65 0.10 7.70 0.30 6.80 0.50 -2.55z m324.25 5.30 c-0.10 -0.90 -0.20 -0.20 -0.20 1.60 0 1.80 0.10 2.50 0.20 1.65 0.10 -0.90 0.10 -2.40 0 -3.25z m-361.20 1.55 c1.60 -0.10 1.75 -0.15 0.65 -0.30 -0.75 -0.15 -1.95 -0.10 -2.55 0.05 -0.90 0.25 -1.05 0.55 -0.80 1.65 l0.30 1.40 0.15 -1.35 c0.15 -1.25 0.35 -1.40 2.25 -1.45z m236.45 1.30 c0.15 -0.80 0.05 -1.25 -0.35 -1.25 -0.40 0 -0.50 0.45 -0.35 1.25 0.10 0.70 0.30 1.25 0.35 1.25 0.05 0 0.25 -0.55 0.35 -1.25z m-247.75 -4.35 c-0.10 -0.90 -0.20 -0.20 -0.20 1.60 0 1.80 0.10 2.50 0.20 1.65 0.10 -0.90 0.10 -2.40 0 -3.25z m238.50 0 c-0.10 -0.90 -0.20 -0.20 -0.20 1.60 0 1.80 0.10 2.50 0.20 1.65 0.10 -0.90 0.10 -2.40 0 -3.25z m-212.85 3.10 c-0.40 -0.25 -1.20 -0.50 -1.75 -0.50 -0.55 0 -1.35 0.25 -1.75 0.50 -0.55 0.35 -0.05 0.50 1.75 0.50 1.80 0 2.30 -0.15 1.75 -0.50z m170.20 -1 c-0.25 -0.25 -0.80 -0.25 -1.20 0 -0.65 0.40 -0.60 0.50 0.15 0.50 0.45 0 0.85 0.30 0.90 0.65 0 0.45 0.10 0.40 0.30 -0.05 0.15 -0.40 0.05 -0.90 -0.15 -1.10z m67.70 1.15 c-0.50 -0.10 -1.40 -0.10 -2 0 -0.65 0.10 -0.25 0.20 0.85 0.20 1.10 0.05 1.60 -0.05 1.15 -0.20z m-5.75 -0.50 c-1.45 -0.10 -3.90 -0.10 -5.50 0 -1.60 0.10 -0.40 0.15 2.60 0.15 3.05 0 4.35 -0.05 2.90 -0.15z m-226.80 -4.75 c-0.10 -0.65 -0.20 -0.15 -0.20 1.10 0 1.25 0.10 1.75 0.20 1.15 0.10 -0.65 0.10 -1.65 0 -2.25z m238.50 0 c-0.10 -0.65 -0.20 -0.15 -0.20 1.10 0 1.25 0.10 1.75 0.20 1.15 0.10 -0.65 0.10 -1.65 0 -2.25z m79.30 1.25 c-0.65 -0.10 -1.65 -0.10 -2.25 0 -0.65 0.10 -0.15 0.20 1.10 0.20 1.25 0 1.75 -0.10 1.15 -0.20z m-6.30 -4 c-0.10 -0.80 -0.20 -0.15 -0.20 1.35 0 1.50 0.10 2.15 0.20 1.40 0.10 -0.80 0.10 -2 0 -2.75z m-320.65 2.55 c0.50 -0.20 0.75 -0.85 0.75 -1.65 -0.10 -1.15 -0.10 -1.20 -0.30 -0.15 -0.20 1 -0.50 1.10 -3.35 1.10 -1.75 0 -4.55 0.15 -6.25 0.30 l-3.05 0.35 0 -1.40 c0 -1.65 -0.25 -1.55 -0.70 0.40 l-0.30 1.35 6.20 0 c3.40 0 6.55 -0.15 7 -0.30z m239.25 -1.30 c-0.05 -1.10 -0.15 -1.30 -0.30 -0.65 -0.15 0.55 -0.40 1.15 -0.60 1.35 -0.15 0.20 -3.15 0.20 -6.70 0 -4.95 -0.30 -6.35 -0.20 -6.35 0.25 0 0.50 1.70 0.65 7 0.65 l7 0 -0.05 -1.60z m-286.10 -1.50 c-0.10 -0.65 -0.20 -0.25 -0.20 0.85 -0.05 1.10 0.05 1.60 0.20 1.15 0.10 -0.50 0.10 -1.40 0 -2z m376.55 -3.90 c0.50 -0.85 0.50 -1 -0.10 -1 -0.55 0 -0.80 -0.75 -0.95 -2.60 -0.15 -2.30 -0.20 -2.15 -0.25 1 -0.10 3.70 0.20 4.35 1.30 2.60z m-202.85 -3.25 l-0.10 -3.25 2.50 0 2.55 0 -0.10 -3.60 -0.10 -3.65 -0.15 3.40 -0.20 3.35 -2.45 0 -2.50 0 0 3.85 c0 2.10 0.15 3.65 0.35 3.50 0.15 -0.20 0.25 -1.80 0.20 -3.60z m194.30 -5.35 c-0.10 -1.75 -0.15 -0.35 -0.15 3.10 0 3.45 0.05 4.85 0.15 3.15 0.10 -1.75 0.10 -4.55 0 -6.25z m-308.25 5.35 l-0.20 -3.25 2.50 0 2.50 0 0.20 -3.45 c0.10 -1.90 0 -3.35 -0.20 -3.20 -0.25 0.10 -0.40 1.55 -0.40 3.20 l0 2.95 -2.50 0 -2.50 0 0 3.50 c0 1.95 0.15 3.50 0.40 3.50 0.20 0 0.25 -1.45 0.20 -3.25z m22.90 -0.25 l0 -3.50 -4.75 0 -4.75 0 0 -3.75 0 -3.75 -1.60 0.05 c-1.55 0.10 -1.55 0.10 -0.25 0.30 1.35 0.20 1.35 0.25 1.35 3.95 l0 3.70 4.75 0 4.75 0 0 3.25 c0 1.80 0.10 3.25 0.25 3.25 0.15 0 0.25 -1.55 0.25 -3.50z m114 0 l0 -3.50 -4.75 0 -4.75 0 0 -3.75 0 -3.75 -1.60 0.05 c-1.55 0.10 -1.55 0.10 -0.25 0.30 1.35 0.20 1.35 0.25 1.35 3.95 l0 3.70 4.75 0 4.75 0 0 3.25 c0 1.80 0.10 3.25 0.25 3.25 0.15 0 0.25 -1.55 0.25 -3.50z m20.15 3.15 c-0.65 -0.10 -1.75 -0.10 -2.50 0 -0.80 0.10 -0.25 0.20 1.10 0.20 1.40 0 2 -0.10 1.40 -0.20z m21.35 -6.15 l2.50 0 -0.10 -3.60 -0.10 -3.65 -0.15 3.40 -0.20 3.35 -2.45 0 -2.50 0 0.10 3.65 0.10 3.60 0.15 -3.35 0.20 -3.40 2.45 0z m20.50 3 l0 -3.50 -4.75 0 -4.75 0 0 -3.75 0 -3.75 -1.60 0.05 c-1.55 0.10 -1.55 0.10 -0.25 0.30 1.35 0.20 1.35 0.25 1.35 3.95 l0 3.70 4.80 0 4.80 0 -0.20 3.25 c-0.05 1.80 0 3.25 0.25 3.25 0.20 0 0.35 -1.55 0.35 -3.50z m127.65 0.65 c-0.65 -0.10 -1.75 -0.10 -2.50 0 -0.80 0.10 -0.25 0.20 1.10 0.20 1.40 0 2 -0.10 1.40 -0.20z m-104.15 -4.35 c0.40 -0.10 -0.70 -0.20 -2.50 -0.25 -1.80 0 -3.55 0.15 -3.90 0.35 -0.55 0.40 4.60 0.25 6.40 -0.10z m-239.35 -0.15 c-0.90 -0.10 -2.40 -0.10 -3.25 0 -0.90 0.10 -0.20 0.20 1.60 0.20 1.80 0 2.50 -0.10 1.65 -0.20z m116.25 0 c-1.05 -0.10 -2.75 -0.10 -3.75 0 -1.05 0.10 -0.20 0.20 1.85 0.20 2.05 0 2.90 -0.10 1.90 -0.20z m58.75 0 c-0.90 -0.10 -2.40 -0.10 -3.25 0 -0.90 0.10 -0.20 0.20 1.60 0.20 1.80 0 2.50 -0.10 1.65 -0.20z m96.70 0 c-1 -0.10 -2.60 -0.10 -3.50 0 -0.85 0.10 0 0.20 1.90 0.20 1.95 0 2.65 -0.10 1.60 -0.20z m71.20 -2.65 l9.45 0 0 -4 0 -4 -13.50 0 -13.50 0 0.10 2.15 0.05 2.10 0.20 -1.85 0.20 -1.90 13 0 12.95 0 0 3.50 0 3.50 -9.50 0 -9.50 0 0.05 1.40 c0.10 1.15 0.10 1.20 0.30 0.25 0.20 -1.15 0.25 -1.15 9.70 -1.15z m-188.10 -26.70 c0.95 -0.50 2.30 -1.55 3 -2.35 0.70 -0.75 23.45 -33.70 50.55 -73.15 47.85 -69.70 49.30 -71.75 50.85 -71.75 1.55 -0.05 2.35 1.05 36.20 50.35 19.05 27.70 41.45 60.30 49.85 72.50 8.35 12.20 15.95 22.70 16.85 23.35 2.40 1.85 4.30 2.05 7 0.75 3.05 -1.45 4.75 -4 4.75 -7.05 0 -2.50 0.45 -1.80 -29.30 -45.05 -3.55 -5.15 -10.45 -15.20 -15.30 -22.25 -4.85 -7.10 -13.15 -19.20 -18.45 -26.90 -5.25 -7.70 -15.25 -22.20 -22.10 -32.25 -25.85 -37.70 -24.65 -36.10 -28.25 -36.85 -1 -0.20 -37.55 -0.40 -81.15 -0.40 l-79.25 0 -2 1.30 c-1.45 1 -5.40 6.30 -15.95 21.75 -7.70 11.20 -14.60 21.25 -15.40 22.30 l-1.35 1.90 -43.40 -0.05 c-28.85 -0.05 -43.80 0.10 -44.65 0.45 -0.70 0.30 -1.95 1.20 -2.80 2.05 -0.85 0.80 -11.40 15.85 -23.45 33.40 -12.05 17.55 -29.10 42.35 -37.90 55.15 -8.75 12.80 -16.30 24.05 -16.70 25 -0.55 1.35 -0.60 2.10 -0.15 3.55 0.60 1.90 2.60 4.30 4.30 5 0.55 0.20 57.60 0.35 126.75 0.30 121.40 -0.10 125.80 -0.15 127.45 -1.05z m99.80 -17 c0.70 -1.05 0.80 -2.55 0.65 -9 -0.10 -5.50 -0.35 -7.95 -0.80 -8.40 -0.85 -0.85 -14.75 -1.20 -16.70 -0.45 l-1.40 0.55 0 8.70 c0 7.80 0.10 8.80 0.90 9.25 0.45 0.30 4.30 0.55 8.70 0.55 7.80 0 7.90 0 8.65 -1.20z m28.15 0.60 c0.40 -0.40 0.60 -3.20 0.60 -9.25 l0 -8.65 -1.35 -0.55 c-1.50 -0.60 -14.75 -0.35 -16.25 0.25 -1.20 0.55 -1.40 1.85 -1.40 9.60 0 4.85 0.20 7.25 0.65 7.85 0.45 0.60 1.60 0.85 4.85 1 10.25 0.40 12.30 0.35 12.90 -0.25z m-28.20 -28 c0.65 -0.90 0.80 -2.60 0.80 -8.40 0 -10.10 0.60 -9.50 -9.70 -9.50 -5.65 0 -8.30 0.20 -8.70 0.60 -0.40 0.40 -0.60 3.10 -0.60 8.90 0 5.80 0.20 8.50 0.60 8.90 0.40 0.40 3.05 0.60 8.70 0.60 7.85 0 8.15 -0.05 8.90 -1.10z m28.20 0.50 c0.40 -0.40 0.60 -3.15 0.60 -9 0 -7.75 -0.05 -8.40 -0.95 -8.90 -0.55 -0.30 -4.35 -0.50 -8.75 -0.50 -9.85 0 -9.30 -0.55 -9.30 9.50 0 10.10 -0.60 9.50 9.70 9.50 5.65 0 8.30 -0.20 8.70 -0.60z"/>
  <path d="M153.85 244.70 c-0.20 -0.20 -0.35 -7.75 -0.35 -16.80 l0 -16.40 4 0 4 0 -0.10 16.65 -0.15 16.60 -3.50 0.15 c-1.95 0.05 -3.70 0 -3.90 -0.20z"/>
  <path d="M119 164.20 c0 -1.60 3.60 -7.05 27.85 -42.30 l27.80 -40.45 1.75 0.15 c1.70 0.15 2.30 0.90 29.45 40.40 24.45 35.60 27.65 40.45 27.65 42.10 l0 1.90 -57.25 0 -57.25 0 0 -1.80z m50.30 -12.20 l2.75 0 -0.15 -4.85 -0.15 -4.90 -5 0 -5 0 0 4.75 0 4.75 1.75 0.30 c0.95 0.20 2.05 0.25 2.40 0.15 0.40 -0.10 1.90 -0.20 3.40 -0.20z m19.80 -3.10 c0.10 -1.75 0.05 -3.95 -0.10 -4.90 l-0.25 -1.75 -4.75 0 -4.75 0 -0.15 4.90 -0.15 4.85 5 0 4.95 0 0.20 -3.10z m-18.75 -13.40 l1.70 0 -0.15 -4.85 -0.15 -4.90 -5 0 -5 0 -0.15 4.40 c-0.20 5.70 0.10 6.10 4.10 5.65 1.60 -0.15 3.70 -0.30 4.65 -0.30z m17.20 0 l1.45 0 0 -5 0 -5 -5 0 -5 0 0 4.95 0 5 1.40 0.20 c0.75 0.15 2.35 0.15 3.55 0.05 1.20 -0.10 2.85 -0.20 3.60 -0.20z"/>
 </g>
 <g fill="#2d3f4e">
  <path d="M101 247 c-3.75 -0.70 -5.90 -1.90 -8.90 -4.90 -2.45 -2.45 -3.10 -3.50 -4.05 -6.50 -1 -3.10 -1.15 -4.30 -0.95 -8.50 0.45 -8.45 3.50 -13.55 9.80 -16.50 3.70 -1.75 10.10 -2.10 14.35 -0.85 3.90 1.10 7.80 4.95 9 8.80 1 3.30 1.50 8.25 1.05 10.60 -0.35 1.90 -0.70 2.10 -4.30 2.60 -1.25 0.20 -2.30 0.40 -2.40 0.50 -0.10 0.05 1.45 1.10 3.35 2.30 1.95 1.20 3.50 2.45 3.55 2.70 0 0.30 -0.80 1.70 -1.80 3.15 -1.85 2.80 -5.20 5.25 -8.20 6.10 -2.60 0.75 -7.95 1 -10.50 0.50z m11.35 -4.55 c1.20 -0.55 2.70 -1.70 3.40 -2.55 l1.30 -1.55 -1.50 -1 -1.55 -0.95 -1.75 1.55 c-2.20 1.90 -3.50 2.25 -7.55 1.90 -5.65 -0.45 -8.45 -3.30 -9.05 -9.10 l-0.30 -2.70 11.20 0.05 11.20 0.05 -0.05 -3.20 c-0.05 -5.60 -1.85 -8.95 -5.90 -11.10 -1.70 -0.90 -2.85 -1.05 -6.55 -1.05 -5.50 0.05 -8.10 1.05 -11.10 4.35 -2.55 2.80 -3.65 6.15 -3.65 11.40 0 8.40 3.80 13.35 11.50 14.95 3.10 0.60 7.85 0.15 10.35 -1.05z m-3.60 -6.65 c0.95 -0.40 2.05 -1.40 2.50 -2.25 0.90 -1.80 1.80 -1.55 -6.85 -1.80 -4.55 -0.10 -4.90 -0.05 -4.90 0.85 0 0.55 0.65 1.65 1.45 2.45 1.20 1.20 1.90 1.45 3.80 1.45 1.25 0 3.05 -0.30 4 -0.70z"/>
  <path d="M95.50 225.75 c0 -0.45 0.35 -2.05 0.80 -3.55 1.35 -4.75 5.20 -7.20 10.10 -6.45 4.20 0.65 6.40 3.20 6.70 7.85 l0.15 2.65 -8.85 0.15 c-8 0.15 -8.90 0.05 -8.90 -0.65z m13.10 -3.40 c1.60 -0.20 -0.10 -2.55 -2.15 -3.05 -2.20 -0.55 -3.85 -0.15 -5.35 1.20 -2 1.85 -1.45 2.30 2.80 2.10 2.10 -0.05 4.25 -0.20 4.70 -0.25z"/>
  <path d="M135.95 246.80 c-2.90 -0.60 -5.90 -2.50 -7.25 -4.50 -1.45 -2.25 -1.80 -4.65 -2.15 -13.55 l-0.30 -9 -1.25 0.15 c-0.70 0.05 -1.75 0 -2.35 -0.15 -1.10 -0.25 -1.15 -0.50 -1.15 -5.25 l0 -5 2.50 0 2.45 0 0.15 -3.10 0.15 -3.15 4.75 -0.85 c7.55 -1.35 7 -1.60 7 3.10 l0 4 4.75 0 4.75 0 0 5.20 0 5.20 -4.60 -0.05 -4.65 -0.10 -0.15 7.20 c-0.20 9.80 0.45 10.70 5.80 8.50 2.10 -0.85 2.35 -0.55 4.10 4.55 l1.25 3.60 -1.40 1.20 c-1.55 1.30 -5.75 2.70 -8.05 2.65 -0.85 0 -2.80 -0.30 -4.35 -0.65z m6.85 -3.35 c2.65 -0.70 2.85 -0.95 2.20 -2.70 -0.45 -1.20 -0.65 -1.30 -2.70 -1 -2.90 0.45 -5.45 -0.75 -6.40 -2.90 -0.45 -1.15 -0.65 -4.25 -0.65 -11.10 l0 -9.50 4.65 0 4.60 0 0 -1.60 0 -1.65 -4.75 0 -4.75 0 0 -3.80 0 -3.85 -2.10 0.35 c-1.10 0.20 -2.25 0.45 -2.50 0.60 -0.20 0.15 -0.40 1.70 -0.40 3.50 l0 3.20 -2.55 0 -2.50 0 0.15 1.65 c0.15 1.55 0.25 1.60 2.40 1.60 l2.25 0 0.30 10.50 c0.25 9.40 0.35 10.70 1.35 12.55 2 3.90 6.25 5.45 11.40 4.15z"/>
  <path d="M214.35 246.60 c-3.80 -1.05 -7.15 -3.15 -8.60 -5.50 -0.55 -0.85 -1.10 -1.55 -1.25 -1.60 -0.15 0 -0.25 1.40 -0.25 3.15 0 1.70 -0.15 3.35 -0.40 3.70 -0.45 0.65 -27.50 0.95 -31.30 0.35 l-2.05 -0.35 0 -23.90 0 -23.95 16.75 0 16.80 0 -0.05 3.90 c-0.05 2.10 -0.20 4.60 -0.35 5.50 l-0.25 1.60 -10.20 0 -10.20 0 0 3.50 0 3.50 9 0 9 0 0 5.50 c0 3.05 -0.15 5.45 -0.35 5.45 -0.25 -0.05 -4.30 -0.05 -9 0 l-8.65 0.05 0 4 0 4 10.45 0 c11.15 0 11.05 -0.05 11.05 2.55 0 0.65 0.85 0 2.90 -2.25 3.35 -3.75 4.40 -4 6.80 -1.65 3.15 3.20 10.30 3.95 9.70 1.05 -0.10 -0.70 -1.45 -1.30 -5.55 -2.50 -8.70 -2.55 -12.05 -5.80 -12 -11.75 0.10 -7.50 5.55 -11.95 14.65 -11.95 5.80 0 9.30 1.25 12.35 4.35 1.55 1.60 2.15 2 2.05 1.30 0 -0.50 0 -1.85 0 -3 l0.10 -2.15 2.50 0 2.50 0 0 -3.15 0 -3.15 5.40 -0.85 c2.95 -0.50 5.65 -0.85 6 -0.85 0.40 0 0.60 1.15 0.60 4 l0 4 4.75 0 4.80 0 -0.15 5.15 -0.15 5.10 -4.65 0 -4.60 -0.05 0.10 8 c0.15 9.30 0.35 9.60 4.10 8.20 3.40 -1.25 3.90 -0.90 5.45 3.75 1.50 4.65 1.60 4.35 -2.40 6.50 -1.50 0.80 -2.95 1.05 -5.75 1.05 -4.60 0.05 -7.65 -1 -10.15 -3.60 -2.90 -2.95 -3.35 -4.95 -3.35 -14.90 0 -6.60 -0.15 -8.70 -0.60 -8.75 -0.35 -0.05 -1.50 0 -2.50 0.05 -1.90 0.10 -1.90 0.10 -1.90 -1.95 0 -1.15 -0.15 -2.05 -0.35 -2.05 -0.15 0 -1.55 1.35 -3 3 -1.55 1.70 -3.15 3 -3.70 3 -0.55 0 -1.85 -0.60 -2.95 -1.30 -2.60 -1.70 -6.45 -2.20 -7.50 -0.95 -0.60 0.75 -0.60 0.95 0.25 1.55 0.50 0.40 1.75 0.80 2.70 1 10.25 1.75 14.75 5.65 14.70 12.75 -0.05 3.95 -1.25 6.65 -4 8.90 -3.85 3.15 -11.20 4.30 -17.30 2.65z m11.10 -3.35 c4.75 -1.65 6.70 -4.20 6.65 -8.60 0 -2.10 -0.30 -3.05 -1.30 -4.40 -1.40 -1.80 -5.25 -3.55 -9.05 -4.10 -3 -0.40 -6.40 -2.20 -7.20 -3.85 -0.95 -2 -0.20 -4.25 1.95 -5.70 1.45 -1 2.25 -1.15 4.55 -1 1.55 0.10 3.70 0.70 4.95 1.35 l2.15 1.10 1.30 -1.30 c1.30 -1.30 1.30 -1.30 0.30 -2.05 -1.55 -1.15 -5.70 -2.20 -8.70 -2.20 -5.60 0 -9.05 1.75 -10.60 5.30 -2.25 5.05 0.45 9.15 7.35 11.15 6.75 1.95 7.10 2.05 8.40 3.40 2.30 2.25 1.50 5.75 -1.70 7.40 -3 1.55 -9.20 0.45 -11.55 -2.05 l-1.15 -1.20 -1.60 1.55 -1.65 1.60 1.10 0.85 c4.05 3.15 11.20 4.40 15.80 2.75z m31.15 0.25 c2.20 -0.65 2.60 -1.15 2.15 -2.85 -0.30 -1.15 -0.45 -1.25 -2.50 -0.95 -2.80 0.45 -5.40 -0.60 -6.45 -2.65 -0.65 -1.20 -0.80 -3.35 -0.80 -11 0 -11.05 -0.50 -10.15 5.90 -9.95 l3.60 0.15 0 -1.60 0 -1.65 -4.75 0 -4.75 0 0 -3.75 c0 -4.05 0.10 -3.95 -3.10 -3.45 l-1.90 0.35 0 3.40 0 3.45 -2.55 0 -2.50 0 0.15 1.65 c0.15 1.55 0.25 1.60 2.40 1.60 l2.25 0 0.25 10.75 c0.25 9.80 0.35 10.95 1.35 12.80 1.75 3.30 6.75 4.95 11.25 3.70z m-56.10 -2.10 l0 -2.15 -10.50 0.15 -10.50 0.15 0 -8.05 0 -8 9 0 9 0 0 -1.75 0 -1.75 -9 0 -9 0 0 -7 0 -7 10.40 -0.10 10.35 -0.15 0 -1.75 0 -1.75 -13.10 -0.15 -13.15 -0.10 0 20.40 c0 11.25 0.15 20.60 0.35 20.75 0.15 0.20 6.15 0.35 13.25 0.35 l12.90 0 0 -2.10z"/>
  <path d="M271.75 246.95 c-4.35 -1.05 -7.85 -4.90 -8.50 -9.45 -0.40 -2.90 0.50 -6.80 2.05 -8.85 1.55 -2.05 6.35 -4.35 11.35 -5.35 4.60 -0.95 5.95 -1.55 5.75 -2.70 -0.10 -0.60 -0.80 -0.90 -2.40 -1 -3 -0.25 -5.40 0.55 -7.75 2.50 -2.95 2.40 -3.60 2.20 -6.45 -2 l-2.50 -3.60 1.75 -1.80 c2.10 -2.20 5.25 -4 8.85 -5 3.55 -1.05 11.55 -0.75 13.95 0.45 2.30 1.20 5.05 4.20 5.75 6.30 0.30 1 0.65 5.90 0.75 10.95 l0.25 9.10 1.40 0 c1.95 0 2.30 0.70 2.65 5.10 l0.35 3.80 -2.25 0.90 c-3.50 1.30 -7.80 0.60 -11.35 -1.90 -0.70 -0.50 -1.05 -0.40 -2 0.45 -2.60 2.45 -6.85 3.20 -11.65 2.10z m7.85 -4.20 c0.90 -0.45 2.10 -1.40 2.65 -2.15 0.55 -0.80 0.65 -1.10 0.20 -0.75 -0.40 0.35 -2 0.75 -3.50 0.95 -3.50 0.40 -5.70 -0.60 -6.75 -3.05 -0.90 -2.20 -0.90 -3.45 0.10 -5.55 0.95 -2 2.50 -2.95 6.55 -3.90 1.65 -0.35 3.40 -0.95 4 -1.35 0.85 -0.50 1.35 -0.50 2.45 -0.05 1.35 0.65 1.35 0.65 1 4.45 -0.20 2.10 -0.70 4.45 -1.10 5.20 -0.90 1.85 -0.85 2.25 0.25 2.05 0.60 -0.10 1.10 0.35 1.55 1.40 1 2.40 2.75 3.50 5.60 3.50 l2.45 0 -0.15 -1.60 c-0.10 -1.25 -0.40 -1.70 -1.20 -1.80 -2.40 -0.35 -2.60 -1.20 -2.80 -11.85 -0.15 -9.65 -0.20 -10.05 -1.40 -11.85 -1.60 -2.40 -3.50 -3.30 -7.85 -3.70 -4.10 -0.40 -7.90 0.35 -11 2.15 -2.75 1.60 -2.90 1.90 -1.90 3.45 0.75 1.15 0.90 1.20 1.65 0.50 1.95 -1.75 5.30 -2.80 9 -2.80 3.40 0 3.80 0.10 5.15 1.45 2 2 2 4.55 0.05 6.55 -1.10 1.10 -2.55 1.65 -7.25 2.75 -3.20 0.75 -6.60 1.85 -7.45 2.45 -6.75 4.50 -2.40 15.50 5.70 14.60 1.35 -0.15 3.15 -0.60 4 -1.05z m0.95 -5.90 c0.45 -0.35 1 -1.05 1.30 -1.60 0.65 -1.25 1.25 -4.25 0.85 -4.25 -0.95 0 -6.55 1.65 -7.05 2.10 -0.90 0.70 -0.80 2.65 0.15 3.60 0.90 0.95 3.60 1 4.75 0.15z"/>
  <path d="M311.40 246.90 c-2.80 -0.60 -6.65 -3.70 -7.85 -6.40 -0.60 -1.35 -0.85 -4 -1.05 -11.25 l-0.25 -9.50 -2.35 0.15 c-1.35 0.10 -2.40 0 -2.45 -0.25 0 -0.20 -0.05 -2.55 -0.05 -5.15 l-0.05 -4.75 2.55 -0.15 2.60 -0.15 0 -3.15 0 -3.10 5.40 -0.85 c2.95 -0.50 5.65 -0.85 6 -0.85 0.40 0 0.60 1.15 0.60 4 l0 4 4.75 0 4.80 0 -0.15 5.10 -0.15 5.10 -4.65 -0.05 -4.60 0 0.10 8 c0.15 9.35 0.30 9.65 4.10 8.25 3.40 -1.25 3.90 -0.90 5.45 3.75 1.25 3.85 1.30 4.15 0.45 4.75 -3.35 2.55 -8.55 3.55 -13.20 2.50z m7.20 -3.40 c2.20 -0.65 2.60 -1.15 2.15 -2.85 -0.30 -1.15 -0.45 -1.25 -2.50 -0.95 -2.80 0.45 -5.40 -0.60 -6.45 -2.65 -1.05 -2 -1.20 -20.30 -0.15 -20.65 0.30 -0.15 2.40 -0.25 4.60 -0.25 l4 -0.05 0.15 -1.55 0.15 -1.55 -4.75 0 -4.80 0 0 -3.75 c0 -4.05 0.10 -3.95 -3.10 -3.45 l-1.90 0.35 0 3.40 0 3.45 -2.50 0 -2.50 0 0 1.75 0 1.75 2.40 -0.10 2.35 -0.15 0.25 10.75 c0.25 9.80 0.35 10.95 1.35 12.75 1.85 3.45 6.60 5 11.25 3.75z"/>
  <path d="M339.50 247 c-3.80 -0.70 -6.05 -1.95 -9 -4.95 -2.30 -2.40 -3.05 -3.55 -4 -6.50 -1 -3.10 -1.10 -4.30 -0.90 -8.70 0.45 -8.45 3.50 -13.40 10.20 -16.40 2.70 -1.25 3.80 -1.45 7.35 -1.45 6.05 0 8.90 1 12.15 4.20 2.90 2.95 4.10 5.80 4.55 11.15 0.55 5.85 -0.20 7.15 -4.10 7.40 -3.25 0.20 -3.55 0.30 -2.75 0.65 1.30 0.60 7 4.60 7 4.95 0 0.15 -0.65 1.35 -1.50 2.65 -1.80 2.85 -4.50 5 -7.50 6.15 -2.75 1 -8.45 1.45 -11.50 0.85z m11.35 -4.60 c1.20 -0.55 2.75 -1.70 3.45 -2.55 l1.25 -1.50 -1.50 -1 -1.55 -0.95 -1.75 1.55 c-2.20 1.90 -3.50 2.25 -7.55 1.90 -5.65 -0.45 -8.75 -3.60 -8.90 -9.05 l-0.05 -2.55 11 -0.05 11 -0.05 -0.05 -3.20 c-0.05 -5.60 -1.85 -8.95 -5.90 -11.10 -1.70 -0.90 -2.85 -1.05 -6.55 -1.05 -5.50 0.05 -8.10 1.05 -11.10 4.35 -2.55 2.80 -3.65 6.15 -3.65 11.40 0 8.45 3.75 13.30 11.50 14.95 3.10 0.60 7.70 0.15 10.35 -1.10z m-3.60 -6.60 c0.95 -0.40 2.05 -1.40 2.50 -2.25 0.90 -1.80 1.65 -1.60 -6.50 -1.70 -4.35 -0.05 -5 0.05 -5.15 0.80 -0.10 0.45 0.50 1.55 1.30 2.35 1.25 1.25 1.95 1.50 3.85 1.50 1.25 0 3.05 -0.30 4 -0.70z"/>
  <path d="M334 225.60 c0 -2.10 1.60 -6 3.05 -7.50 2.60 -2.65 7.30 -3.25 10.95 -1.35 1.95 1 3.40 3.70 3.60 6.85 l0.15 2.65 -8.85 0.15 c-8.35 0.10 -8.90 0.05 -8.90 -0.80z m13.40 -4.25 c-1.50 -2.90 -4.90 -3.20 -7.70 -0.70 l-1.85 1.60 4.70 0.25 c2.60 0.15 4.85 0.20 5.10 0.10 0.20 -0.10 0.10 -0.65 -0.25 -1.25z"/>
  <path d="M370.60 246.75 c-1.45 -0.40 -3.35 -1.10 -4.25 -1.55 -2.15 -1.10 -5.85 -4.70 -5.85 -5.70 0 -0.45 1.25 -2.20 2.80 -3.90 3.15 -3.50 4.35 -3.85 6.25 -1.80 2.65 2.90 8.85 4.30 9.90 2.25 0.75 -1.35 -0.10 -1.90 -5.55 -3.35 -5.20 -1.40 -8.55 -3.35 -10.40 -6.15 -1 -1.50 -1.20 -2.40 -1.20 -5.55 0 -4.40 0.75 -6.10 3.75 -8.65 2.80 -2.45 5.80 -3.35 10.75 -3.35 5.35 0 8.60 1.10 11.75 3.90 1.40 1.25 2.45 2.40 2.35 2.65 -0.40 1.10 -6.10 6.45 -6.90 6.45 -0.55 0 -1.80 -0.55 -2.80 -1.25 -3.15 -2.15 -7.70 -2.30 -7.70 -0.30 0 1.05 0.70 1.40 4.15 2.05 4.90 0.95 7.75 2.05 9.85 3.85 3.60 3.10 4.80 7.40 3.45 12.40 -0.80 2.95 -5 6.90 -8.25 7.70 -3.90 1 -9.15 1.15 -12.10 0.30z m10.45 -3.30 c4.10 -1.40 6.95 -4.80 6.95 -8.35 0 -4.60 -2.25 -6.95 -8.05 -8.35 -5.95 -1.45 -6.90 -1.75 -8.45 -3.05 -1.60 -1.40 -2.05 -3.80 -1 -5.75 1.45 -2.70 6.70 -3.25 11 -1.10 l2.65 1.30 0.95 -1.15 c1.20 -1.50 1 -2.05 -1.30 -3.20 -2.45 -1.20 -7.95 -1.60 -11.25 -0.80 -5.70 1.35 -8.45 6.20 -6.35 11.20 0.90 2.20 3 3.35 9.15 5.25 6.30 1.95 7.80 3.05 7.80 5.95 0 2.40 -0.75 3.50 -3 4.45 -3.40 1.40 -9.10 0.30 -11.95 -2.40 -1 -0.95 -1 -0.95 -2.45 0.55 -1.70 1.75 -1.35 2.35 2.15 4.05 4 1.90 9.80 2.50 13.15 1.40z"/>
  <path d="M439.65 246.75 c-4.05 -1.15 -6.40 -2.50 -8.45 -5 -1.80 -2.25 -3.90 -7.20 -3.25 -7.80 0.75 -0.80 7.75 -3.45 9.05 -3.45 1.15 0 1.55 0.35 2.15 1.95 1.10 2.70 2.50 3.55 5.90 3.55 3.50 0 4.95 -1 5.40 -3.80 0.50 -2.95 -0.15 -5.75 -1.70 -7.05 -2.30 -2 -6.50 -1.20 -8.20 1.55 l-1 1.60 -3.90 -0.35 c-2.15 -0.20 -4.45 -0.40 -5.10 -0.40 l-1.15 -0.05 0.30 -8.10 c0.15 -4.50 0.45 -11 0.60 -14.50 l0.30 -6.40 14.95 0 14.95 0 0 5.50 0 5.50 -9.45 0 -9.40 0 -0.35 1.55 c-0.15 0.85 -0.30 2.20 -0.30 3 l0 1.40 2.15 -0.95 c4.25 -1.95 10.85 -1.10 14.75 1.95 5.95 4.65 6.95 18.05 1.85 24.75 -3.70 4.85 -13.25 7.50 -20.10 5.55z m11.80 -3.80 c2.85 -0.85 6.25 -4.35 7.30 -7.50 1.20 -3.65 0.90 -9.90 -0.70 -13.15 -1.75 -3.50 -4.70 -5.30 -8.90 -5.30 -3.50 0 -6.70 1.25 -7.65 3 -0.55 1 -1.75 1.25 -3.20 0.70 -0.90 -0.35 -1.10 -4.95 -0.45 -11.30 l0.30 -3.40 9.40 0 9.45 0 0 -2 0 -2 -11.45 0 -11.45 0 -0.30 3.65 c-0.15 1.95 -0.40 7.05 -0.50 11.25 l-0.25 7.60 2.35 0 c1.75 0 2.50 -0.25 2.95 -0.95 0.30 -0.50 1.60 -1.45 2.90 -2.05 4.30 -2.10 9.80 -0.40 11.90 3.65 2.15 4.20 0.70 11.15 -2.85 13.35 -2.60 1.55 -8.45 1.45 -10.95 -0.25 -1 -0.70 -2.20 -1.95 -2.60 -2.75 l-0.75 -1.40 -2 0.75 c-2.40 0.95 -2.35 1.70 0.35 5 1.60 1.95 3.15 2.75 7.40 3.85 1.55 0.40 7.45 -0.05 9.70 -0.75z"/>
  <path d="M23.90 246.70 c-0.25 -0.20 -0.40 -11.15 -0.40 -24.30 l0 -23.90 9.65 0 c15.10 0.05 20.05 1.15 25.10 5.65 9.10 8.10 9.65 27.45 1.10 36.05 -4.95 4.95 -9.95 6.30 -24.35 6.65 -5.90 0.15 -10.90 0.10 -11.10 -0.15z m24.30 -4.45 c6.60 -1.75 10.95 -5.60 12.65 -11.15 1.15 -3.80 1.15 -13.30 0 -16.80 -1.70 -5.15 -5.55 -9.10 -10.85 -11.15 -1.80 -0.65 -4.40 -0.90 -12.60 -1.05 l-10.40 -0.20 0 20.45 c0 11.30 0.15 20.65 0.40 20.85 0.65 0.70 17.60 -0.05 20.80 -0.95z"/>
  <path d="M32.50 222.80 l0 -16.90 6.65 0.20 c6.15 0.15 6.80 0.25 9.60 1.65 4.05 2 5.90 4.60 7 9.55 1.60 6.95 0.15 14.20 -3.45 17.85 -2.90 2.90 -5.90 3.80 -13.65 4.20 l-6.15 0.30 0 -16.85z m16.05 11 c3 -2 4.10 -4.95 4.10 -11 0 -9.65 -2.85 -12.70 -12 -13.20 l-4.65 -0.25 0 13.05 0 13.05 2.15 0.15 c3.90 0.30 8.40 -0.50 10.40 -1.80z"/>
  <path d="M71.90 246.65 l-1.40 -0.20 0 -18.50 0 -18.45 6 0 6 0 0 18.45 0 18.45 -1.55 0.30 c-1.65 0.30 -6.75 0.30 -9.05 -0.05z m7.10 -18.40 l0 -15.25 -2.50 0 -2.50 0 0 14.90 c0 8.20 0.15 15.10 0.35 15.25 0.15 0.20 1.30 0.35 2.50 0.35 l2.15 0 0 -15.25z"/>
  <path d="M152.15 246.65 c-0.50 -0.20 -0.65 -4.40 -0.65 -18.70 l0 -18.45 6 0 6 0 0 18.45 c0 16.35 -0.10 18.50 -0.80 18.75 -0.95 0.35 -9.65 0.35 -10.55 -0.05z m7.75 -18.60 l0.10 -15.05 -2.50 0 -2.50 0 0 14.90 c0 8.20 0.15 15.10 0.35 15.25 0.15 0.20 1.20 0.25 2.35 0.15 l2.05 -0.20 0.15 -15.05z"/>
  <path d="M392.35 246.70 c-0.50 -0.55 -0.40 -5.45 0.20 -9.20 0.90 -5.65 3 -8.25 12.85 -15.70 7.40 -5.55 7.95 -6.30 7.70 -10.15 -0.10 -1.40 -2.40 -2.65 -4.85 -2.65 -2.30 0 -4.40 1.10 -7.35 3.80 -1.30 1.20 -2.55 2.20 -2.75 2.20 -0.40 0 -2.40 -2 -5.80 -5.80 l-1.35 -1.50 1.75 -2.30 c4.70 -6 12.65 -8.55 21.10 -6.70 8 1.65 12.35 7.55 11.50 15.65 -0.55 5.30 -3.90 9.40 -12.75 15.70 -4.55 3.25 -6.60 4.95 -6.60 5.40 0 0.15 4.20 0.30 9.35 0.30 l9.40 0 0.15 5.55 0.15 5.55 -16.15 0.10 c-8.90 0.05 -16.35 -0.05 -16.55 -0.25z m29.05 -5.30 l-0.15 -2 -9.85 0.10 -9.90 0.05 0 -1.55 c0 -3.70 1.85 -5.80 9.95 -11.45 9.20 -6.40 11.85 -11.10 10 -17.80 -2.15 -7.70 -16.15 -9.75 -23.80 -3.45 l-2.15 1.75 1.30 1.75 1.30 1.70 2.05 -1.80 c3.65 -3.10 9.50 -3.95 13.40 -1.95 3.60 1.90 4.25 7.30 1.35 11.55 -0.60 0.95 -4.45 4.20 -8.50 7.20 -8.40 6.25 -9.70 7.90 -10.45 13.35 -0.25 1.85 -0.35 3.65 -0.25 4 0.20 0.45 3.35 0.60 13.05 0.60 l12.80 0 -0.15 -2.05z"/>
  <path d="M74.15 208.45 c-3.55 -1 -5.45 -5.55 -3.75 -8.85 1.95 -3.85 5.95 -5.10 9.60 -3.05 3.35 1.90 4.35 5 2.80 8.70 -1.30 3.10 -4.65 4.35 -8.65 3.20z m5.20 -4.30 c0.85 -1.10 0.80 -3.40 0 -4.10 -3.25 -2.65 -7.80 0.95 -5.30 4.15 0.95 1.20 1.35 1.35 2.90 1.10 1 -0.15 2.10 -0.65 2.40 -1.15z"/>
  <path d="M155.15 208.45 c-3.55 -1 -5.45 -5.55 -3.75 -8.85 1.95 -3.85 5.95 -5.10 9.60 -3.05 3.35 1.90 4.35 5 2.80 8.70 -1.30 3.10 -4.65 4.35 -8.65 3.20z m5.20 -4.30 c0.85 -1.10 0.80 -3.40 0 -4.10 -2.30 -1.90 -5.95 -0.60 -5.95 2.10 0 2.20 1.50 3.50 3.60 3.15 0.95 -0.15 2.05 -0.65 2.35 -1.15z"/>
  <path d="M8.15 183.95 c-1.40 -0.20 -3.15 -0.75 -3.85 -1.25 -2.85 -2.10 -4.10 -7.30 -2.65 -10.85 0.40 -0.90 7.90 -12.05 16.65 -24.85 8.80 -12.80 25.85 -37.60 37.90 -55.15 12.05 -17.55 22.60 -32.60 23.45 -33.40 0.85 -0.85 2.10 -1.80 2.80 -2.10 0.95 -0.40 13.50 -0.60 44.75 -0.65 42.70 -0.05 43.50 -0.05 44.25 -1.05 0.45 -0.55 7.35 -10.50 15.30 -22.15 11 -16 15 -21.45 16.45 -22.45 l2 -1.30 80.75 0 c44.45 0 81.65 0.20 82.65 0.40 3.60 0.75 2.40 -0.85 28.25 36.85 6.85 10.05 16.85 24.55 22.10 32.25 5.30 7.70 13.60 19.80 18.45 26.90 4.85 7.05 11.75 17.10 15.30 22.25 24.25 35.25 29.30 42.80 29.30 43.90 0 0.65 0.25 1.20 0.50 1.20 0.30 0 0.50 0.70 0.50 1.50 0 0.85 -0.20 1.50 -0.50 1.50 -0.25 0 -0.50 0.50 -0.50 1.15 0 1.85 -2.30 4.65 -4.75 5.85 -3.15 1.55 -7.40 1.25 -9.90 -0.65 -1 -0.75 -7.85 -10.25 -16.95 -23.45 -8.40 -12.20 -30.80 -44.80 -49.85 -72.55 l-34.65 -50.35 -48.50 70.60 c-26.70 38.85 -49.30 71.70 -50.25 72.95 -1 1.30 -2.70 2.85 -3.85 3.50 l-2.05 1.20 -86.25 0.15 c-47.45 0.05 -103.80 0.15 -125.25 0.25 -21.45 0.05 -40.15 -0.05 -41.60 -0.20z m89.15 -24.55 c3.25 -4.75 6.45 -9.45 21.30 -31 2.95 -4.35 7.90 -11.55 11 -16 7.30 -10.70 10.95 -16.05 17.40 -25.40 2.95 -4.25 5.75 -8.35 6.25 -9.10 l0.85 -1.40 -30.75 0 -30.80 0 -4.80 7.15 c-2.65 3.90 -7.45 10.95 -10.70 15.60 -3.20 4.70 -8.85 12.90 -12.55 18.25 -3.70 5.35 -9.55 13.90 -13.05 19 -3.50 5.10 -8.30 12.05 -10.65 15.50 -2.35 3.45 -5.15 7.55 -6.25 9.15 -1.15 1.55 -2.05 2.95 -2.05 3.10 0 0.15 13.80 0.25 30.65 0.25 l30.65 0 3.50 -5.10z m134.50 4.30 c-0.30 -0.75 -54.20 -79.25 -55 -80.10 -0.50 -0.50 -6.15 7.35 -28.45 39.80 -15.35 22.25 -27.85 40.60 -27.85 40.70 0 0.15 25.10 0.25 55.75 0.20 41.45 -0.05 55.70 -0.20 55.55 -0.60z m30.15 -14.55 c3.90 -5.75 13.75 -20.05 21.90 -31.90 8.10 -11.80 16.45 -23.95 18.55 -27 2.10 -3 6.05 -8.80 8.80 -12.85 2.80 -4.05 6.15 -9 7.55 -11 11.75 -17.10 16.20 -23.60 20.40 -29.75 l4.90 -7.15 -64.70 0 -64.70 0 -5.20 7.60 c-2.85 4.20 -8.15 12.05 -11.85 17.40 -3.70 5.35 -6.80 10 -6.95 10.30 -0.20 0.60 3.70 6.60 14.20 21.80 8 11.60 17.25 25 24.50 35.65 3.95 5.80 9.70 14.10 12.70 18.50 3.05 4.40 7.15 10.40 9.10 13.35 2 2.95 3.60 5.40 3.60 5.40 0.05 0 3.25 -4.65 7.20 -10.35z"/>
 </g>
 <g fill="#3c9cd6">
  <path d="M111.80 232.45 c0.10 -0.20 -0.20 -0.50 -0.65 -0.60 -0.50 -0.15 0.05 -0.25 1.25 -0.30 2.40 -0.05 2.85 0.70 0.65 1.05 -0.85 0.10 -1.40 0.05 -1.25 -0.15z"/>
  <path d="M350.25 232.50 c0.15 -0.25 -0.25 -0.55 -0.85 -0.65 -0.65 -0.10 0.05 -0.25 1.55 -0.30 1.50 0 2.60 0.05 2.45 0.20 -0.50 0.50 -3.40 1.20 -3.15 0.75z"/>
  <path d="M342.40 166.45 c-0.80 -0.45 -0.90 -1.50 -0.90 -10.75 l0 -10.20 1.40 -0.55 c2 -0.80 18.85 -0.40 19.70 0.45 0.45 0.45 0.70 3.15 0.80 9.90 0.20 12.70 1.15 11.70 -10.80 11.70 -5.40 0 -9.70 -0.25 -10.20 -0.55z"/>
  <path d="M370.40 165.90 c-0.80 -0.80 -0.90 -1.95 -0.90 -9.50 0 -4.75 0.15 -9.15 0.30 -9.75 0.15 -0.60 0.95 -1.30 1.70 -1.55 1.90 -0.70 17 -0.75 18.65 -0.15 l1.35 0.55 0 10.20 c0 8.35 -0.15 10.30 -0.75 10.80 -0.55 0.45 -3.20 0.55 -10.10 0.45 -8.15 -0.20 -9.50 -0.30 -10.25 -1.05z"/>
  <path d="M29 165.70 c0 -0.15 1.30 -2.10 2.85 -4.35 2.75 -3.95 4.45 -6.45 18 -26.20 6.35 -9.30 15.80 -23 25.70 -37.40 3.25 -4.65 8.05 -11.70 10.70 -15.60 l4.80 -7.15 33.25 0 c18.25 0 33.20 0.10 33.20 0.20 0 0.20 -3.45 5.30 -17.75 26.05 -1.70 2.50 -5.60 8.15 -8.65 12.65 -3.10 4.45 -8.05 11.65 -11 16 -14.85 21.55 -18.05 26.25 -21.30 31 l-3.50 5.10 -33.15 0 c-18.25 0 -33.15 -0.15 -33.15 -0.30z"/>
  <path d="M253.15 160.55 c-0.80 -1.05 -3.65 -5.25 -6.40 -9.25 -2.75 -4.05 -8.35 -12.25 -12.45 -18.20 -4.10 -5.95 -10.40 -15.10 -14 -20.35 -3.55 -5.20 -8.45 -12.30 -10.80 -15.75 -2.40 -3.45 -5.55 -8.05 -7.10 -10.25 -1.50 -2.25 -3.55 -5.15 -4.50 -6.50 -0.95 -1.40 -3.60 -5.30 -5.90 -8.70 l-4.15 -6.15 0.90 -1.55 c0.50 -0.85 3.90 -5.85 7.50 -11.10 3.60 -5.20 8.85 -12.95 11.70 -17.15 l5.20 -7.60 67.25 0 67.20 0 -0.85 1.35 c-0.50 0.70 -2.05 2.95 -3.45 4.95 -1.40 2 -6.70 9.75 -11.80 17.20 -5.10 7.45 -10.40 15.15 -11.75 17.15 -1.40 2 -4.70 6.75 -7.30 10.60 -2.65 3.85 -6.45 9.50 -8.55 12.50 -2.10 3.05 -10.45 15.20 -18.55 27 -8.15 11.85 -18.20 26.50 -22.45 32.65 -4.20 6.10 -7.80 11.10 -8 11.10 -0.20 0 -1 -0.85 -1.75 -1.95z"/>
  <path d="M160.50 153.25 c-0.35 -0.40 -0.50 -2.80 -0.40 -6.55 l0.15 -5.95 6.50 0 6.50 0 0.15 6.40 c0.05 3.50 -0.05 6.35 -0.25 6.40 -0.20 0 -3.05 0.10 -6.25 0.20 -4.40 0.15 -6 0 -6.40 -0.50z"/>
  <path d="M177.95 153.50 c-0.30 -0.20 -0.45 -2.75 -0.35 -6.55 l0.15 -6.20 6.10 -0.15 c5.40 -0.10 6.15 -0.05 6.55 0.75 0.60 1.10 0.65 10.80 0.05 11.70 -0.30 0.55 -1.90 0.70 -6.20 0.70 -3.15 0.05 -6 -0.10 -6.30 -0.25z"/>
  <path d="M342.10 138.90 c-0.45 -0.45 -0.60 -3.45 -0.60 -10.40 0 -6.95 0.15 -9.95 0.60 -10.40 0.45 -0.45 3.40 -0.60 10.20 -0.60 9.40 0 9.65 0.05 10.40 1.10 0.65 0.90 0.80 2.75 0.80 9.90 0 7.15 -0.15 9 -0.80 9.90 -0.75 1.05 -1 1.10 -10.40 1.10 -6.80 0 -9.75 -0.15 -10.20 -0.60z"/>
  <path d="M370.30 138.40 c-0.65 -0.90 -0.80 -2.75 -0.80 -9.90 0 -7.15 0.15 -9 0.80 -9.90 0.75 -1.05 1 -1.10 10 -1.10 5.45 0 9.65 0.20 10.25 0.50 0.90 0.50 0.95 1.15 0.95 10.40 0 7.05 -0.15 10.05 -0.60 10.50 -0.45 0.45 -3.40 0.60 -10.20 0.60 -9.40 0 -9.65 -0.05 -10.40 -1.10z"/>
  <path d="M160.60 136.90 c-0.80 -0.80 -0.85 -12.20 -0.05 -12.70 0.70 -0.40 11.70 -0.40 12.40 0 0.80 0.55 0.75 12.65 -0.05 12.90 -0.35 0.10 -3.15 0.25 -6.15 0.35 -3.85 0.05 -5.70 -0.10 -6.15 -0.55z"/>
  <path d="M178.15 137.15 c-0.50 -0.15 -0.65 -2 -0.65 -6.70 0 -4.80 0.15 -6.45 0.65 -6.50 3.35 -0.15 12 0 12.20 0.25 0.50 0.45 0.65 10.80 0.15 12 -0.40 1.15 -0.65 1.20 -6.10 1.20 -3.10 0 -5.95 -0.15 -6.25 -0.25z"/>
 </g>
</svg>